<svg width="351" height="313" viewBox="0 0 351 313" fill="none" xmlns="http://www.w3.org/2000/svg">
<path d="M-0.99999 251.055C-0.999995 281.415 -0.999997 296.595 8.62639 305.502C18.2528 314.408 33.387 313.23 63.6555 310.874L295.655 292.819C321.913 290.775 335.042 289.754 343.021 281.129C351 272.505 351 259.336 351 233L351 63.1762C351 31.9072 351 16.2726 341.014 7.32965C331.028 -1.61337 315.488 0.104215 284.409 3.53933L52.4086 29.1815C27.0055 31.9892 14.3039 33.3931 6.65198 41.9373C-0.99996 50.4816 -0.999962 63.2605 -0.999966 88.8183L-0.99999 251.055Z" fill="url(#paint0_linear_202_61619)"/>
<defs>
<linearGradient id="paint0_linear_202_61619" x1="175" y1="425.309" x2="175" y2="-101.985" gradientUnits="userSpaceOnUse">
<stop stop-color="#1E88E5"/>
<stop offset="1" stop-color="#0066FF"/>
</linearGradient>
</defs>
</svg>
