<svg width="352" height="309" viewBox="0 0 352 309" fill="none" xmlns="http://www.w3.org/2000/svg">
<path d="M352 247.084C352 277.417 352 292.583 342.384 301.488C332.769 310.393 317.647 309.231 287.403 306.907L55.4029 289.08C29.1198 287.06 15.9783 286.05 7.98913 277.423C-3.76568e-06 268.797 -4.91794e-06 255.617 -7.22245e-06 229.256L-2.17497e-05 63.0839C-2.44799e-05 31.8541 -2.5845e-05 16.2393 9.97046 7.29764C19.941 -1.64398 35.4637 0.050046 66.5092 3.43807L298.509 28.7566C323.949 31.5328 336.668 32.9209 344.334 41.4688C352 50.0166 352 62.8119 352 88.4024L352 247.084Z" fill="url(#paint0_linear_202_61618)"/>
<defs>
<linearGradient id="paint0_linear_202_61618" x1="247.21" y1="518.279" x2="209.145" y2="-29.5854" gradientUnits="userSpaceOnUse">
<stop stop-color="#1E88E5"/>
<stop offset="1" stop-color="#0066FF"/>
</linearGradient>
</defs>
</svg>
